<svg width="33" height="32" viewBox="0 0 33 32" fill="none" xmlns="http://www.w3.org/2000/svg">
<rect x="0.5" width="32" height="32" rx="16" fill="#0E131B"/>
<path d="M10.9726 14.1013L11.3582 14.6451L11.3582 14.6451L10.9726 14.1013ZM11.2009 21.3272L11.65 20.8346L11.2009 21.3272ZM14.6107 21.6635V22.3302C14.9789 22.3302 15.2773 22.0317 15.2773 21.6635H14.6107ZM18.3885 21.6635H17.7218C17.7218 22.0317 18.0203 22.3302 18.3885 22.3302V21.6635ZM21.7965 21.3272L22.2457 21.8199L22.2457 21.8199L21.7965 21.3272ZM21.8843 14.0017L21.4987 14.5455V14.5455L21.8843 14.0017ZM16.8843 10.4561L17.27 9.91228V9.91228L16.8843 10.4561ZM16.1131 10.4561L16.4987 10.9999L16.4987 10.9999L16.1131 10.4561ZM11.4987 14.3732C11.4987 14.4813 11.4463 14.5826 11.3582 14.6451L10.5869 13.5575C10.3225 13.745 10.1654 14.049 10.1654 14.3732H11.4987ZM11.4987 20.5154V14.3732H10.1654V20.5154H11.4987ZM11.65 20.8346C11.5447 20.7385 11.4987 20.6222 11.4987 20.5154H10.1654C10.1654 21.0176 10.3847 21.4853 10.7517 21.8199L11.65 20.8346ZM12.0913 20.9968C11.9153 20.9968 11.7574 20.9325 11.65 20.8346L10.7517 21.8199C11.1166 22.1526 11.5994 22.3302 12.0913 22.3302V20.9968ZM14.6107 20.9968H12.0913V22.3302H14.6107V20.9968ZM15.2773 21.6635V18.5295H13.944V21.6635H15.2773ZM15.2773 18.5295C15.2773 17.8545 15.8246 17.3073 16.4996 17.3073V15.974C15.0882 15.974 13.944 17.1182 13.944 18.5295H15.2773ZM16.4996 17.3073C17.1746 17.3073 17.7218 17.8545 17.7218 18.5295H19.0551C19.0551 17.1182 17.911 15.974 16.4996 15.974V17.3073ZM17.7218 18.5295V21.6635H19.0551V18.5295H17.7218ZM20.9061 20.9968H18.3885V22.3302H20.9061V20.9968ZM21.3474 20.8346C21.24 20.9325 21.0821 20.9968 20.9061 20.9968V22.3302C21.398 22.3302 21.8808 22.1526 22.2457 21.8199L21.3474 20.8346ZM21.4987 20.5154C21.4987 20.6222 21.4527 20.7385 21.3474 20.8346L22.2457 21.8199C22.6126 21.4853 22.832 21.0176 22.832 20.5154H21.4987ZM21.4987 14.5455V20.5154H22.832V14.5455H21.4987ZM21.4987 14.5455H21.4987H22.832C22.832 14.1133 22.6225 13.7078 22.27 13.4578L21.4987 14.5455ZM16.4987 10.9999L21.4987 14.5455L22.27 13.4578L17.27 9.91228L16.4987 10.9999ZM16.4987 10.9999V10.9999L17.27 9.91228C16.808 9.58468 16.1894 9.58469 15.7274 9.91229L16.4987 10.9999ZM11.3582 14.6451L16.4987 10.9999L15.7274 9.91229L10.5869 13.5575L11.3582 14.6451Z" fill="white"/>
<path fill-rule="evenodd" clip-rule="evenodd" d="M10.9726 14.1015C10.8844 14.164 10.832 14.2654 10.832 14.3735V20.5156C10.832 20.8201 10.9647 21.1122 11.2009 21.3275C11.437 21.5428 11.7573 21.6637 12.0913 21.6637H14.6097V18.5298C14.6097 17.4866 15.4554 16.6409 16.4986 16.6409C17.5418 16.6409 18.3875 17.4866 18.3875 18.5298V21.6637H20.9061C21.2401 21.6637 21.5604 21.5428 21.7965 21.3275C22.0327 21.1122 22.1654 20.8201 22.1654 20.5156V14.5457C22.1654 14.3296 22.0606 14.1269 21.8843 14.0019L16.8843 10.4563C16.6533 10.2925 16.3441 10.2925 16.1131 10.4563L10.9726 14.1015Z" fill="white"/>
<path fill-rule="evenodd" clip-rule="evenodd" d="M15.7261 9.91245C16.1881 9.58485 16.8067 9.58485 17.2686 9.91245L22.2686 13.458C22.6212 13.708 22.8307 14.1134 22.8307 14.5456V20.5156C22.8307 21.0178 22.6113 21.4855 22.2444 21.82C21.8795 22.1527 21.3967 22.3303 20.9048 22.3303H18.3862C18.018 22.3303 17.7195 22.0318 17.7195 21.6637V18.5297C17.7195 17.8547 17.1723 17.3075 16.4973 17.3075C15.8223 17.3075 15.2751 17.8547 15.2751 18.5297V21.6637C15.2751 22.0318 14.9766 22.3303 14.6084 22.3303H12.09C11.5981 22.3303 11.1153 22.1527 10.7504 21.82C10.3834 21.4855 10.1641 21.0178 10.1641 20.5156V14.3734C10.1641 14.0492 10.3212 13.7452 10.5856 13.5576L10.9712 14.1015L10.9782 14.1112M21.4974 14.5456L16.4974 11.0001L11.4974 14.5456V20.5156C11.4974 20.6223 11.5434 20.7387 11.6487 20.8347C11.7561 20.9327 11.914 20.997 12.09 20.997H13.9417V18.5297C13.9417 17.1183 15.0859 15.9742 16.4973 15.9742C17.9087 15.9742 19.0528 17.1183 19.0528 18.5297V20.997H20.9048C21.0808 20.997 21.2387 20.9327 21.3461 20.8347C21.4514 20.7387 21.4974 20.6223 21.4974 20.5156L21.4974 14.5456ZM15.7261 9.91245L10.5856 13.5576L15.7261 9.91245ZM10.5856 13.5576L10.9712 14.1015L10.5856 13.5576Z" fill="white"/>
</svg>
